<?xml version="1.0" encoding="utf-8"?>
<!-- Generator: Adobe Illustrator 16.0.0, SVG Export Plug-In . SVG Version: 6.00 Build 0)  -->
<!DOCTYPE svg PUBLIC "-//W3C//DTD SVG 1.1//EN" "http://www.w3.org/Graphics/SVG/1.1/DTD/svg11.dtd">
<svg version="1.1" xmlns="http://www.w3.org/2000/svg"  x="0px" y="0px"
	 width="618.093px" height="375.494px" viewBox="0 0 618.093 375.494" enable-background="new 0 0 618.093 375.494"
	 xml:space="preserve">
<g id="Layer_1">
	<g>
		<path fill="#425968" d="M87.253,265.311C34.108,265.311,0,228.03,0,177.792c0-52.616,37.81-90.955,94.657-90.955
			c22.21,0,39.132,5.024,50.501,9.783l-0.264,26.705c-12.691-6.61-29.349-12.956-48.386-12.956c-45.213,0-66.63,28.556-66.63,64.779
			c0,39.132,24.59,66.63,64.515,66.63c12.956,0,23.003-2.38,29.349-5.817v-60.02h27.762v74.033
			C137.49,257.378,114.487,265.311,87.253,265.311z"/>
		<path fill="#425968" d="M228.975,265.311c-24.061,0-40.454-7.933-51.559-15.071l11.634-20.888
			c8.726,6.081,22.475,12.955,38.867,12.955c14.278,0,30.936-6.346,30.936-22.21c0-26.704-42.04-31.993-63.192-55.524
			c-7.139-7.933-11.898-17.715-11.898-31.2c0-25.383,19.566-46.535,54.731-46.535c18.509,0,32.258,4.76,41.247,9.519l-0.264,25.912
			c-11.898-7.139-25.383-12.163-39.661-12.163c-15.071,0-27.498,6.346-27.498,20.095c0,34.373,76.148,33.315,76.148,86.725
			C288.466,246.274,262.555,265.311,228.975,265.311z"/>
		<path fill="#425968" d="M421.993,262.667l-17.45-44.42h-64.516l-16.393,44.42h-27.498l67.423-174.771h19.302l69.01,174.771
			H421.993z M379.423,148.444c-2.908-8.726-5.288-15.864-6.346-21.417h-0.264c-1.587,6.082-3.702,12.956-6.875,21.152l-17.187,46.8
			h46.8L379.423,148.444z"/>
	</g>
	<g>
		<path fill="#425968" d="M211.533,353.226c-19.129,0-30.999-13.734-30.999-32.569c0-18.736,13.145-33.55,32.176-33.55
			c7.75,0,13.538,1.962,16.48,3.826v7.651c-4.61-2.942-9.123-5.003-16.775-5.003c-14.42,0-24.23,11.575-24.23,26.585
			c0,15.401,9.025,26.486,24.132,26.486c5.494,0,10.889-1.766,15.206-4.12l2.158,5.886
			C223.697,351.754,217.517,353.226,211.533,353.226z"/>
		<path fill="#425968" d="M267.353,352.245l-1.864-4.513c-2.845,2.747-7.357,5.494-14.224,5.494
			c-7.554,0-14.225-5.396-14.225-14.225c0-9.123,6.376-14.715,18.639-15.107l9.417-0.294c0-0.687,0-1.766,0-2.158
			c0-7.946-4.12-10.595-10.006-10.595c-5.984,0-9.712,2.452-12.164,4.316l-2.943-5.199c5.592-4.022,10.497-5.298,16.383-5.298
			c8.829,0,15.892,3.826,15.892,15.696v14.126c0,13.146,0.392,16.284,0.981,17.756H267.353z M265.097,329.976l-9.221,0.294
			c-8.338,0.295-11.674,3.14-11.674,8.241c0,4.708,2.943,8.534,9.025,8.534s9.711-3.041,11.87-5.297V329.976z"/>
		<path fill="#425968" d="M299.531,353.226c-3.434,0-5.788-0.688-7.75-1.472v23.739h-7.161v-67.688
			c3.139-1.079,8.535-3.14,15.205-3.14c14.028,0,22.955,9.025,22.955,23.838C322.78,344.691,311.106,353.226,299.531,353.226z
			 M299.727,311.141c-3.335,0-5.788,0.49-7.946,1.178v32.862c2.551,1.178,4.415,1.864,7.456,1.864
			c9.711,0,16.285-6.965,16.285-18.442C315.521,316.439,308.164,311.141,299.727,311.141z"/>
		<path fill="#425968" d="M337.888,296.132c-2.747,0-5.003-2.257-5.003-5.003c0-2.747,2.256-5.003,5.003-5.003
			s5.003,2.256,5.003,5.003C342.891,293.875,340.635,296.132,337.888,296.132z M334.357,352.245v-46.4h7.161v46.4H334.357z"/>
		<path fill="#425968" d="M368.692,353.226c-6.671,0-9.908-3.925-9.908-9.908v-31.392h-7.553v-6.082h7.553v-10.202l7.161-2.453
			v12.655h14.225l-2.551,6.082h-11.674v29.233c0,3.924,1.472,5.689,4.513,5.689c3.336,0,6.377-1.864,8.24-3.335l2.257,5.101
			C377.521,351.166,373.008,353.226,368.692,353.226z"/>
		<path fill="#425968" d="M417.056,352.245l-1.864-4.513c-2.845,2.747-7.357,5.494-14.225,5.494
			c-7.554,0-14.224-5.396-14.224-14.225c0-9.123,6.376-14.715,18.639-15.107l9.417-0.294c0-0.687,0-1.766,0-2.158
			c0-7.946-4.12-10.595-10.006-10.595c-5.984,0-9.712,2.452-12.164,4.316l-2.943-5.199c5.592-4.022,10.497-5.298,16.383-5.298
			c8.829,0,15.892,3.826,15.892,15.696v14.126c0,13.146,0.393,16.284,0.981,17.756H417.056z M414.799,329.976l-9.221,0.294
			c-8.339,0.295-11.674,3.14-11.674,8.241c0,4.708,2.942,8.534,9.024,8.534s9.712-3.041,11.87-5.297V329.976z"/>
		<path fill="#425968" d="M442.465,353.226c-5.69,0-8.143-3.63-8.143-8.535v-61.9h7.161v58.663c0,4.415,1.079,5.298,3.826,5.298
			c0.49,0,1.275,0,2.452-0.295l0.883,5.199C446.487,352.735,444.819,353.226,442.465,353.226z"/>
	</g>
</g>
<g id="Layer_3">
	<g>
		<path fill="#E4E76D" d="M451.684,127.214c-0.003-0.006-0.005-0.011-0.008-0.017c-0.482-1.021-0.919-2.012-1.311-2.964
			c-0.004-0.01-0.008-0.02-0.012-0.03c-0.087-0.213-0.167-0.419-0.249-0.628c-0.094-0.238-0.189-0.477-0.277-0.709
			c-0.001,0-0.001-0.001-0.001-0.001c-0.011-0.028-0.02-0.054-0.029-0.081c-0.151-0.401-0.295-0.795-0.429-1.18
			c-0.116-0.334-0.228-0.664-0.331-0.985c-0.001-0.003-0.002-0.005-0.003-0.008c-0.023-0.073-0.045-0.144-0.067-0.216
			c-0.002-0.006-0.004-0.013-0.006-0.019c-0.063-0.201-0.12-0.396-0.179-0.591c-0.048-0.162-0.098-0.326-0.143-0.484
			c-0.001-0.004-0.003-0.009-0.004-0.014c-0.093-0.331-0.181-0.656-0.258-0.969c-0.343-1.39-0.632-2.762-0.895-4.125
			c-0.001-0.003-0.001-0.007-0.002-0.01c-0.029-0.151-0.053-0.3-0.081-0.451c-0.563-3.015-0.949-5.968-1.145-8.847
			c0-0.004-0.001-0.008-0.001-0.012c-0.068-1.011-0.115-2.013-0.141-3.006c0,0,0-0.001,0-0.001c-0.021-0.78-0.016-1.548-0.01-2.317
			c0.001-0.204-0.005-0.411-0.002-0.614c0-0.001,0-0.002,0-0.003c0.004-0.257,0.013-0.512,0.02-0.767c0-0.003,0-0.005,0-0.008
			c0.008-0.29,0.025-0.575,0.036-0.863c0.145-3.708,0.567-7.287,1.255-10.719c0.001-0.002,0.002-0.005,0.002-0.008
			c0.11-0.552,0.237-1.095,0.361-1.64c0.091-0.402,0.176-0.808,0.274-1.206v0c0.203-0.826,0.42-1.645,0.651-2.453
			c0.002-0.008,0.005-0.017,0.007-0.025c0.013-0.044,0.024-0.088,0.037-0.132c0.001-0.004,0.003-0.009,0.004-0.013
			c0.044-0.151,0.095-0.296,0.14-0.446c0.222-0.747,0.448-1.491,0.694-2.222c0.002-0.006,0.004-0.013,0.006-0.019
			c0.293-0.872,0.602-1.733,0.926-2.582c0.004-0.012,0.009-0.023,0.014-0.035c0.322-0.843,0.659-1.676,1.012-2.498
			c0.021-0.05,0.045-0.097,0.066-0.147c0.337-0.782,0.686-1.556,1.048-2.316c0.122-0.259,0.243-0.52,0.368-0.777
			c0.006-0.013,0.012-0.026,0.019-0.04c0.034-0.069,0.069-0.137,0.104-0.205c0.041-0.078,0.081-0.156,0.12-0.235
			c6.895-13.941,18.063-24.455,31.06-31.658c1.267-0.717,2.559-1.395,3.863-2.052c0.35-0.177,0.698-0.357,1.052-0.529
			c0.003-0.001,0.005-0.002,0.008-0.003c0.606-0.295,1.22-0.578,1.834-0.86c0.005-0.002,0.01-0.004,0.015-0.007
			c0.001,0,0.003-0.001,0.004-0.002c0.822-0.378,1.651-0.743,2.487-1.097c0.005-0.002,0.011-0.005,0.016-0.007
			c0.008-0.003,0.017-0.007,0.024-0.01c2.411-1.021,4.873-1.945,7.384-2.761c0,0,0.002-0.001,0.004-0.001
			c0.006-0.002,0.013-0.004,0.02-0.006c2.546-0.828,5.139-1.551,7.771-2.161c0.041-0.01,0.081-0.021,0.122-0.03h0.001
			c1.163-0.268,2.333-0.513,3.511-0.737l0,0c0.385-0.074,0.772-0.138,1.159-0.207c0.003,0,0.007-0.001,0.01-0.001
			c2.534-0.451,5.097-0.809,7.686-1.053c0.001,0,0.003,0,0.003,0c0.244-0.023,0.487-0.038,0.73-0.059c0.006,0,0.011,0,0.017-0.001
			c1.14-0.099,2.284-0.175,3.432-0.233c0.296-0.015,0.592-0.031,0.888-0.043c0,0,0.002,0,0.004,0
			c1.309-0.054,2.621-0.091,3.939-0.091c0.254,0,0.505,0.009,0.758,0.012c0.001,0,0.003,0,0.003,0c0.008,0,0.014,0,0.021,0
			c0.602,0.007,1.201,0.018,1.797,0.04c0.693,0.02,1.379,0.061,2.065,0.102c0.001,0,0.002,0,0.002,0
			c6.349,0.381,12.394,1.686,17.966,3.748c0.104,0.038,0.207,0.075,0.31,0.113c0.607,0.229,1.206,0.468,1.802,0.714
			c0.148,0.061,0.297,0.122,0.444,0.184c0.57,0.241,1.133,0.491,1.691,0.748c0.164,0.075,0.326,0.151,0.489,0.228
			c0.546,0.257,1.087,0.521,1.622,0.793c0.162,0.083,0.323,0.167,0.484,0.251c0.534,0.279,1.065,0.562,1.588,0.855
			c0.14,0.078,0.276,0.16,0.415,0.239c0.54,0.309,1.077,0.622,1.604,0.946c0.077,0.048,0.153,0.099,0.23,0.146
			c2.336,1.455,4.531,3.061,6.57,4.796c0.146,0.124,0.294,0.244,0.438,0.368c0.379,0.33,0.748,0.669,1.116,1.008
			c0.194,0.179,0.391,0.356,0.581,0.537c0.338,0.321,0.668,0.648,0.995,0.977c0.209,0.21,0.419,0.42,0.624,0.633
			c0.307,0.318,0.606,0.641,0.904,0.965c0.213,0.234,0.424,0.469,0.633,0.706c0.279,0.318,0.555,0.638,0.825,0.961
			c0.213,0.255,0.421,0.513,0.628,0.771c0.254,0.318,0.508,0.636,0.754,0.959c0.209,0.275,0.41,0.555,0.612,0.833
			c0.23,0.317,0.462,0.632,0.684,0.954c0.209,0.303,0.406,0.612,0.607,0.92c0.2,0.306,0.406,0.609,0.598,0.919
			c0.249,0.401,0.482,0.809,0.718,1.216c0.225,0.388,0.443,0.777,0.654,1.17c0.248,0.46,0.495,0.921,0.726,1.388
			c0.133,0.27,0.253,0.544,0.38,0.816c0.183,0.391,0.366,0.781,0.537,1.176c0.125,0.29,0.239,0.583,0.357,0.875
			c0.155,0.385,0.311,0.77,0.454,1.159c0.111,0.299,0.214,0.601,0.317,0.902c0.135,0.389,0.265,0.779,0.387,1.172
			c0.095,0.304,0.185,0.61,0.272,0.917c0.113,0.397,0.221,0.796,0.321,1.197c0.077,0.306,0.152,0.612,0.223,0.919
			c0.093,0.411,0.178,0.824,0.258,1.238c0.059,0.301,0.118,0.602,0.17,0.905c0.074,0.435,0.135,0.872,0.194,1.311
			c0.039,0.286,0.083,0.571,0.115,0.858c0.055,0.486,0.094,0.975,0.131,1.465c0.019,0.243,0.044,0.485,0.059,0.729
			c0.041,0.734,0.065,1.472,0.065,2.214c0,0.743-0.025,1.481-0.065,2.216c-0.016,0.278-0.041,0.554-0.062,0.83
			c-0.033,0.444-0.07,0.888-0.118,1.329c-0.038,0.354-0.083,0.706-0.131,1.058c-0.046,0.339-0.096,0.677-0.15,1.014
			c-0.066,0.416-0.136,0.831-0.214,1.244c-0.041,0.209-0.087,0.416-0.131,0.625c-0.498,2.403-1.206,4.748-2.111,7.023
			c-0.001,0.002-0.002,0.005-0.003,0.008l0,0c-7.462,18.737-28.178,32.58-53.12,32.58c-30.906,0-48.121-19.014-53.391-33.025
			c0,0-0.021-0.059-0.048-0.138c-0.066,0.167-0.136,0.333-0.2,0.501c-0.098,0.254-0.193,0.51-0.286,0.767
			c-0.149,0.413-0.292,0.828-0.428,1.245c-0.07,0.213-0.14,0.425-0.206,0.639c-0.154,0.501-0.3,1.004-0.436,1.511
			c-0.036,0.131-0.073,0.262-0.107,0.393c-0.166,0.643-0.319,1.291-0.455,1.942c-0.044,0.21-0.091,0.419-0.132,0.63
			c-0.081,0.417-0.149,0.838-0.218,1.26c-0.053,0.334-0.104,0.669-0.148,1.005c-0.048,0.353-0.092,0.706-0.131,1.061
			c-0.047,0.44-0.084,0.882-0.117,1.325c-0.006,0.084-0.012,0.168-0.019,0.252c-0.014,0.194-0.032,0.387-0.043,0.581
			c-0.04,0.733-0.065,1.47-0.065,2.211c0,0.778,0.024,1.553,0.07,2.325c0.009,0.154,0.029,0.306,0.04,0.459
			c0.011,0.105,0.02,0.21,0.028,0.315c0.041,0.514,0.079,1.027,0.14,1.537c0.018,0.147,0.045,0.293,0.064,0.44
			c0.024,0.159,0.047,0.319,0.07,0.479c0.065,0.457,0.126,0.914,0.207,1.366c0.009,0.05,0.021,0.1,0.031,0.15
			c0.054,0.293,0.119,0.583,0.18,0.875c0.084,0.408,0.163,0.816,0.26,1.221c0.082,0.343,0.181,0.682,0.271,1.022
			c0.106,0.4,0.21,0.801,0.329,1.198c0.041,0.136,0.088,0.27,0.132,0.405c0.064,0.207,0.134,0.413,0.201,0.619
			c0.127,0.384,0.25,0.768,0.387,1.147c0.08,0.219,0.17,0.434,0.253,0.652c0.046,0.115,0.089,0.232,0.135,0.348
			c0.15,0.383,0.298,0.767,0.459,1.146c0.056,0.13,0.116,0.259,0.175,0.388c0.09,0.207,0.184,0.412,0.277,0.617
			c0.167,0.364,0.332,0.729,0.509,1.09c0.16,0.328,0.332,0.651,0.502,0.975c0.187,0.357,0.372,0.714,0.568,1.066
			c0.116,0.208,0.24,0.412,0.36,0.619c0.067,0.115,0.134,0.232,0.202,0.347c0.206,0.348,0.41,0.695,0.626,1.038
			c0.04,0.063,0.082,0.125,0.122,0.188c0.162,0.253,0.326,0.505,0.493,0.756c0.223,0.336,0.446,0.672,0.679,1.003
			c0.217,0.31,0.441,0.616,0.667,0.921c0.24,0.325,0.481,0.649,0.73,0.97c0.142,0.182,0.288,0.361,0.434,0.542
			c0.097,0.121,0.192,0.243,0.291,0.363c0.253,0.31,0.507,0.617,0.768,0.921c0.12,0.139,0.244,0.276,0.366,0.415
			c0.136,0.154,0.271,0.309,0.408,0.462c0.271,0.302,0.546,0.602,0.826,0.898c0.198,0.21,0.401,0.417,0.604,0.624
			c0.072,0.074,0.143,0.149,0.216,0.222c0.282,0.286,0.569,0.569,0.859,0.85c0.185,0.178,0.374,0.353,0.562,0.528
			c0.105,0.099,0.209,0.199,0.315,0.297c0.298,0.274,0.6,0.545,0.904,0.813c0.129,0.113,0.26,0.223,0.39,0.334
			c0.178,0.153,0.354,0.308,0.534,0.458c0.31,0.261,0.625,0.517,0.942,0.771c0.321,0.258,0.646,0.513,0.975,0.764
			c0.323,0.247,0.651,0.489,0.98,0.73c0.339,0.247,0.679,0.492,1.023,0.731c0.333,0.232,0.673,0.458,1.013,0.683
			c0.158,0.105,0.319,0.208,0.479,0.312c0.195,0.126,0.388,0.256,0.585,0.381c0.341,0.214,0.687,0.423,1.032,0.631
			c0.321,0.193,0.643,0.384,0.968,0.572c0.048,0.027,0.094,0.056,0.142,0.083c0.354,0.202,0.714,0.397,1.073,0.593
			c0.272,0.148,0.546,0.294,0.82,0.438c0.112,0.059,0.222,0.12,0.334,0.178c0.363,0.187,0.731,0.366,1.101,0.546
			c0.269,0.131,0.539,0.262,0.811,0.389c0.128,0.062,0.254,0.125,0.384,0.185c0.372,0.171,0.75,0.334,1.126,0.498
			c0.29,0.126,0.58,0.252,0.873,0.375c0.121,0.051,0.24,0.105,0.363,0.156c0.379,0.155,0.766,0.301,1.149,0.449
			c0.426,0.165,0.85,0.331,1.281,0.486c0.391,0.14,0.787,0.27,1.183,0.403c0.158,0.053,0.318,0.104,0.477,0.158
			c0.276,0.091,0.55,0.188,0.828,0.275c0.386,0.12,0.776,0.229,1.167,0.342c0.231,0.067,0.463,0.134,0.696,0.199
			c0.223,0.064,0.445,0.131,0.671,0.191c0.399,0.106,0.807,0.2,1.21,0.298c0.464,0.113,0.924,0.231,1.392,0.334
			c0.39,0.085,0.785,0.158,1.178,0.235c0.308,0.062,0.614,0.124,0.924,0.181c0.18,0.035,0.357,0.074,0.538,0.105
			c0.401,0.07,0.81,0.125,1.214,0.188c0.229,0.036,0.457,0.068,0.686,0.104c0.267,0.039,0.529,0.086,0.798,0.122
			c0.324,0.042,0.653,0.073,0.98,0.108c0.047,0.006,0.094,0.01,0.141,0.016c1.267,0.143,2.544,0.255,3.837,0.323
			c0.164,0.009,0.326,0.025,0.491,0.033c0.002,0,0.004,0,0.006,0c0.021,0.001,0.043,0.002,0.064,0.003
			c0.024,0.001,0.047,0.002,0.071,0.003c0.922,0.04,1.849,0.061,2.782,0.061c1.006,0,2.017-0.018,3.031-0.05
			c0.379-0.012,0.76-0.037,1.14-0.054c0.635-0.028,1.269-0.053,1.906-0.094c0.489-0.031,0.981-0.077,1.472-0.116
			c0.526-0.042,1.052-0.079,1.579-0.129c0.562-0.054,1.124-0.122,1.687-0.186c0.456-0.051,0.911-0.098,1.367-0.156
			c0.616-0.079,1.231-0.171,1.848-0.261c0.402-0.059,0.804-0.113,1.205-0.177c0.662-0.105,1.324-0.224,1.987-0.343
			c0.352-0.063,0.704-0.123,1.056-0.19c0.706-0.135,1.411-0.283,2.116-0.433c0.305-0.065,0.608-0.127,0.912-0.195
			c0.744-0.166,1.486-0.345,2.229-0.528c0.262-0.065,0.524-0.127,0.786-0.194c0.777-0.199,1.553-0.411,2.327-0.628
			c0.221-0.063,0.441-0.123,0.661-0.187c0.81-0.234,1.615-0.48,2.42-0.736c0.182-0.058,0.362-0.114,0.543-0.173
			c0.835-0.27,1.666-0.553,2.494-0.846c0.147-0.052,0.295-0.104,0.442-0.157c0.857-0.308,1.71-0.629,2.559-0.962
			c0.112-0.043,0.224-0.088,0.335-0.132c0.878-0.348,1.749-0.708,2.616-1.082c0.081-0.035,0.162-0.071,0.243-0.106
			c0.893-0.388,1.778-0.79,2.659-1.206c0.051-0.024,0.103-0.049,0.153-0.074c0.904-0.43,1.802-0.874,2.691-1.333
			c0.025-0.013,0.05-0.026,0.075-0.04c0.912-0.472,1.816-0.959,2.712-1.463c0,0,0,0,0.001,0c11.705-6.588,21.886-15.88,28.74-27.963
			c0.237-0.426,0.468-0.863,0.701-1.297c0.21-0.39,0.429-0.774,0.632-1.17c0.002-0.003,0.004-0.006,0.006-0.01
			c0.137-0.266,0.27-0.533,0.406-0.798c0.194-0.391,0.393-0.776,0.581-1.172c0.004-0.008,0.007-0.015,0.011-0.023
			c0.388-0.821,0.758-1.654,1.116-2.498c0.163-0.384,0.317-0.776,0.475-1.165c0.249-0.618,0.491-1.242,0.724-1.873
			c0.125-0.338,0.25-0.675,0.37-1.017c0.346-0.98,0.677-1.971,0.981-2.981c0.296-0.982,0.566-1.956,0.813-2.921
			c0.08-0.314,0.144-0.622,0.219-0.934c0.156-0.647,0.315-1.296,0.451-1.936c0.078-0.37,0.14-0.733,0.211-1.1
			c0.111-0.574,0.228-1.15,0.323-1.716c0.065-0.387,0.115-0.767,0.173-1.15c0.081-0.539,0.167-1.079,0.234-1.61
			c0.049-0.392,0.085-0.775,0.127-1.163c0.056-0.514,0.115-1.03,0.159-1.538c0.033-0.391,0.055-0.774,0.081-1.16
			c0.034-0.495,0.07-0.991,0.093-1.479c0.018-0.387,0.024-0.767,0.036-1.149c0.014-0.477,0.028-0.956,0.032-1.426
			c0.003-0.378-0.004-0.75-0.007-1.124c-0.005-0.464-0.009-0.929-0.022-1.387c-0.011-0.369-0.03-0.731-0.047-1.096
			c-0.021-0.45-0.042-0.899-0.072-1.341c-0.023-0.36-0.055-0.714-0.084-1.069c-0.036-0.436-0.073-0.872-0.117-1.3
			c-0.036-0.347-0.077-0.688-0.117-1.03c-0.051-0.424-0.103-0.848-0.16-1.265c-0.046-0.334-0.097-0.664-0.146-0.993
			c-0.063-0.411-0.128-0.82-0.197-1.223c-0.056-0.322-0.114-0.639-0.173-0.956c-0.075-0.398-0.151-0.793-0.231-1.183
			c-0.063-0.308-0.129-0.612-0.195-0.914c-0.085-0.384-0.171-0.766-0.261-1.141c-0.069-0.294-0.142-0.584-0.214-0.872
			c-0.094-0.371-0.189-0.738-0.287-1.1c-0.075-0.278-0.151-0.554-0.229-0.827c-0.102-0.357-0.205-0.709-0.31-1.057
			c-0.079-0.262-0.159-0.523-0.239-0.78c-0.108-0.344-0.219-0.683-0.329-1.017c-0.081-0.245-0.163-0.489-0.245-0.729
			c-0.114-0.33-0.229-0.653-0.345-0.973c-0.083-0.229-0.166-0.458-0.249-0.683c-0.118-0.314-0.236-0.62-0.354-0.923
			c-0.083-0.213-0.166-0.427-0.25-0.635c-0.12-0.298-0.241-0.588-0.361-0.875c-0.081-0.194-0.163-0.391-0.245-0.581
			c-0.123-0.286-0.245-0.562-0.367-0.834c-0.078-0.175-0.156-0.352-0.234-0.521c-0.123-0.27-0.245-0.528-0.367-0.784
			c-0.074-0.157-0.149-0.318-0.224-0.47c-0.123-0.255-0.244-0.497-0.365-0.738c-0.067-0.135-0.137-0.275-0.203-0.405
			c-0.124-0.243-0.244-0.471-0.364-0.697c-0.06-0.113-0.121-0.232-0.18-0.341c-0.122-0.229-0.24-0.441-0.356-0.651
			c-0.05-0.09-0.102-0.187-0.15-0.273c-0.122-0.217-0.237-0.416-0.351-0.611c-0.038-0.065-0.078-0.137-0.115-0.2
			c-0.126-0.215-0.244-0.412-0.357-0.598c-0.019-0.03-0.039-0.064-0.057-0.093c-0.52-0.851-0.884-1.381-1.013-1.565
			c0.007,0.011,0.005,0.008,0.015,0.021c-0.004-0.005-0.012-0.017-0.015-0.021c0.004,0.006,0.003,0.005,0.008,0.011
			c0.002,0.003,0.006,0.008,0.009,0.013c0.003,0.003,0.007,0.009,0.009,0.012l0.001,0.001c0.039,0.056,0.096,0.138,0.163,0.237
			c0.027,0.041,0.058,0.085,0.09,0.133c0.061,0.09,0.128,0.191,0.204,0.306c0.037,0.056,0.07,0.107,0.111,0.169
			c0.112,0.172,0.235,0.363,0.373,0.581c0.01,0.015,0.017,0.025,0.025,0.04c0.147,0.232,0.31,0.495,0.481,0.776
			c0.044,0.072,0.089,0.147,0.134,0.222c0.14,0.231,0.286,0.477,0.439,0.738c0.053,0.089,0.103,0.175,0.156,0.268
			c0.204,0.351,0.414,0.717,0.637,1.116c0.001,0.001,0.002,0.003,0.003,0.005c0.118,0.212,0.246,0.452,0.369,0.679
			c0.128,0.235,0.251,0.457,0.384,0.706c-9.725-18.957-34.301-46.545-77.221-46.545c-52.477,0-88.148,42.357-88.148,87.707
			c0,18.127,5.807,32.567,9.937,40.55C452.103,128.092,451.891,127.651,451.684,127.214z"/>
		<path fill="#E4E76D" d="M604.21,40.884c0.025,0.036,0.062,0.089,0.096,0.14C604.266,40.963,604.239,40.925,604.21,40.884z"/>
	</g>
	<g>
		<path fill="#B2BB1E" d="M604.21,40.884c0.025,0.036,0.062,0.089,0.096,0.14C604.266,40.963,604.239,40.925,604.21,40.884z"/>
		<g>
			<path fill="#B2BB1E" d="M604.163,40.814c0.002,0.003,0.007,0.01,0.009,0.014c0-0.001-0.001-0.002-0.001-0.002
				C604.166,40.819,604.167,40.82,604.163,40.814z"/>
			<path fill="#B2BB1E" d="M604.189,40.853c-0.001-0.001-0.001-0.002-0.001-0.002c-0.001-0.001-0.002-0.002-0.002-0.002
				c0.005,0.007,0.015,0.021,0.021,0.03C604.202,40.872,604.193,40.859,604.189,40.853z"/>
			<path fill="#B2BB1E" d="M607.739,46.791c-0.252-0.475-0.497-0.926-0.732-1.348c-0.001-0.002-0.002-0.003-0.003-0.005
				c-0.223-0.399-0.433-0.766-0.637-1.116c-0.054-0.093-0.104-0.178-0.156-0.268c-0.153-0.261-0.3-0.507-0.439-0.738
				c-0.023-0.039-0.046-0.077-0.069-0.115c-0.024-0.039-0.05-0.083-0.073-0.121c-0.168-0.275-0.328-0.534-0.473-0.762
				c-0.009-0.015-0.016-0.025-0.025-0.04c-0.133-0.209-0.25-0.392-0.359-0.559c-0.055-0.083-0.104-0.16-0.153-0.233
				c-0.061-0.092-0.118-0.177-0.168-0.252c-0.017-0.024-0.033-0.048-0.048-0.07c-0.017-0.025-0.034-0.051-0.05-0.074
				c-0.018-0.026-0.026-0.039-0.043-0.062c0.188,0.277,0.507,0.762,0.913,1.429c0.003,0.006,0.007,0.011,0.01,0.017
				c0.008,0.013,0.017,0.029,0.025,0.042c0.105,0.175,0.215,0.355,0.332,0.556v0c0.037,0.063,0.077,0.135,0.115,0.2
				c0.008,0.013,0.016,0.028,0.023,0.041c0.103,0.177,0.205,0.354,0.314,0.549c0.005,0.007,0.009,0.014,0.013,0.021
				c0.041,0.073,0.084,0.152,0.126,0.229c0.289,0.521,0.597,1.093,0.921,1.728c0.002,0.002,0.003,0.004,0.004,0.007
				c0.066,0.13,0.136,0.271,0.203,0.405c0,0,0,0,0,0.001c0.356,0.71,0.726,1.483,1.103,2.318c0.029,0.065,0.059,0.129,0.088,0.194
				c0.001,0.003,0.003,0.006,0.004,0.009c0.32,0.716,0.644,1.472,0.967,2.274c0.001,0.003,0.002,0.005,0.003,0.008
				c0.032,0.081,0.064,0.164,0.097,0.246c0.167,0.419,0.333,0.847,0.499,1.288c0.003,0.008,0.006,0.016,0.009,0.024
				c0.057,0.154,0.114,0.312,0.171,0.469c0.14,0.382,0.278,0.768,0.415,1.165c0.003,0.007,0.005,0.015,0.008,0.022
				c0.082,0.239,0.164,0.483,0.245,0.729c0.002,0.005,0.003,0.01,0.005,0.015c0.108,0.326,0.215,0.655,0.32,0.991
				c0.001,0.004,0.003,0.008,0.004,0.012c0.08,0.257,0.16,0.518,0.239,0.78v0c0.104,0.342,0.205,0.688,0.305,1.04
				c0.002,0.006,0.003,0.011,0.005,0.017c0.055,0.194,0.108,0.39,0.162,0.586c0.12,0.438,0.237,0.88,0.352,1.332
				c0,0.003,0.001,0.006,0.002,0.009c0.025,0.103,0.051,0.208,0.076,0.313c0.3,1.21,0.575,2.466,0.819,3.769
				c0.002,0.01,0.004,0.019,0.006,0.028c0.052,0.282,0.104,0.566,0.154,0.852c0.075,0.43,0.145,0.866,0.212,1.305
				c0.002,0.007,0.003,0.014,0.004,0.021c0.027,0.177,0.053,0.357,0.079,0.535c0.08,0.555,0.155,1.115,0.223,1.685
				c0.002,0.013,0.003,0.025,0.005,0.038c0.04,0.342,0.081,0.684,0.117,1.03c0,0.004,0.001,0.008,0.001,0.012
				c0.044,0.421,0.079,0.849,0.115,1.278c0,0.003,0.001,0.007,0.001,0.011c0.008,0.09,0.014,0.181,0.021,0.271
				c0.055,0.698,0.1,1.405,0.134,2.122c0,0.006,0.001,0.012,0.001,0.018c0.007,0.155,0.013,0.312,0.02,0.467
				c0.026,0.653,0.043,1.314,0.049,1.983c0.001,0.011,0.001,0.021,0.001,0.033c0.003,0.316,0.006,0.631,0.006,0.949
				c-0.003,0.513-0.016,1.033-0.03,1.554c0,0.016-0.001,0.031-0.001,0.046c-0.012,0.382-0.019,0.762-0.036,1.149
				c0,0.001,0,0.003,0,0.004c-0.022,0.486-0.059,0.98-0.093,1.473c0,0,0,0.001,0,0.001c-0.026,0.386-0.048,0.77-0.081,1.16v0
				c-0.051,0.594-0.12,1.198-0.188,1.801c-0.031,0.299-0.061,0.597-0.099,0.899c0,0.003-0.001,0.006-0.001,0.009
				c-0.066,0.525-0.151,1.058-0.231,1.589c-0.001,0.004-0.001,0.008-0.002,0.012c-0.029,0.196-0.06,0.393-0.089,0.588
				c-0.118,0.739-0.254,1.485-0.399,2.235c-0.003,0.014-0.005,0.028-0.008,0.042c-0.071,0.367-0.133,0.73-0.211,1.1
				c-0.001,0.003-0.001,0.006-0.002,0.008c-0.163,0.769-0.35,1.547-0.543,2.328c-0.04,0.177-0.079,0.354-0.125,0.533
				c-0.001,0.003-0.002,0.006-0.003,0.009c-0.246,0.962-0.516,1.933-0.811,2.912c-0.305,1.01-0.636,2-0.981,2.981
				c-0.12,0.342-0.245,0.679-0.37,1.017c-0.232,0.63-0.475,1.254-0.724,1.873c-0.002,0.005-0.004,0.009-0.006,0.014
				c-0.001,0.002-0.002,0.005-0.003,0.008c-0.154,0.381-0.306,0.765-0.465,1.141c-0.358,0.844-0.729,1.678-1.117,2.5
				c-0.001,0.001-0.002,0.003-0.002,0.005c-0.002,0.004-0.004,0.008-0.006,0.012c-0.001,0.002-0.002,0.004-0.003,0.006
				c-0.188,0.396-0.387,0.782-0.581,1.172c-0.137,0.265-0.27,0.533-0.406,0.798c-0.002,0.003-0.004,0.006-0.006,0.01
				c-0.447,0.871-0.914,1.727-1.395,2.571c-0.422,0.74-0.855,1.471-1.302,2.19c-0.175,0.282-0.359,0.555-0.538,0.834
				c-0.302,0.47-0.602,0.941-0.913,1.402c-0.213,0.315-0.435,0.622-0.652,0.933c-0.29,0.414-0.579,0.83-0.877,1.237
				c-0.234,0.319-0.477,0.631-0.716,0.946c-0.295,0.387-0.588,0.775-0.89,1.155c-0.25,0.315-0.507,0.624-0.763,0.935
				c-0.303,0.369-0.605,0.737-0.915,1.098c-0.264,0.307-0.532,0.609-0.8,0.912c-0.313,0.354-0.628,0.706-0.948,1.052
				c-0.274,0.298-0.554,0.592-0.833,0.885c-0.324,0.34-0.65,0.677-0.981,1.011c-0.284,0.287-0.571,0.571-0.86,0.853
				c-0.337,0.329-0.678,0.654-1.021,0.977c-0.292,0.274-0.586,0.547-0.882,0.816c-0.351,0.318-0.704,0.632-1.06,0.943
				c-0.299,0.262-0.599,0.523-0.902,0.781c-0.364,0.31-0.734,0.614-1.104,0.917c-0.303,0.247-0.604,0.494-0.909,0.736
				c-0.383,0.303-0.77,0.599-1.157,0.895c-0.304,0.231-0.605,0.464-0.912,0.691c-0.402,0.297-0.81,0.587-1.217,0.877
				c-0.301,0.214-0.599,0.431-0.902,0.641c-0.431,0.297-0.867,0.586-1.303,0.875c-0.288,0.191-0.572,0.386-0.862,0.573
				c-0.488,0.315-0.983,0.621-1.479,0.926c-0.244,0.15-0.484,0.306-0.73,0.454c-0.743,0.449-1.493,0.887-2.25,1.313
				c-0.001,0-0.001,0-0.001,0c-0.896,0.504-1.8,0.991-2.712,1.463c-0.025,0.013-0.05,0.026-0.075,0.04
				c-0.89,0.459-1.787,0.903-2.691,1.333c-0.051,0.024-0.103,0.049-0.153,0.074c-0.881,0.416-1.767,0.817-2.659,1.206
				c-0.081,0.035-0.162,0.071-0.243,0.106c-0.867,0.374-1.738,0.734-2.616,1.082c-0.111,0.044-0.223,0.088-0.335,0.132
				c-0.849,0.333-1.701,0.654-2.559,0.962c-0.147,0.053-0.295,0.105-0.442,0.157c-0.828,0.293-1.659,0.576-2.494,0.846
				c-0.181,0.059-0.361,0.115-0.543,0.173c-0.805,0.255-1.61,0.502-2.42,0.736c-0.22,0.064-0.44,0.125-0.661,0.187
				c-0.774,0.218-1.55,0.429-2.327,0.628c-0.262,0.067-0.524,0.129-0.786,0.194c-0.742,0.183-1.484,0.362-2.229,0.528
				c-0.304,0.068-0.607,0.13-0.912,0.195c-0.705,0.15-1.41,0.298-2.116,0.433c-0.352,0.067-0.704,0.127-1.056,0.19
				c-0.663,0.119-1.325,0.238-1.987,0.343c-0.401,0.064-0.803,0.118-1.205,0.177c-0.616,0.09-1.231,0.182-1.848,0.261
				c-0.456,0.058-0.911,0.105-1.367,0.156c-0.563,0.064-1.125,0.132-1.687,0.186c-0.527,0.051-1.053,0.087-1.579,0.129
				c-0.49,0.039-0.982,0.084-1.472,0.116c-0.638,0.041-1.271,0.066-1.906,0.094c-0.38,0.017-0.761,0.042-1.14,0.054
				c-1.015,0.033-2.025,0.05-3.031,0.05c-0.934,0-1.86-0.021-2.782-0.061c-0.002,0-0.004,0-0.006,0
				c-0.02-0.001-0.04-0.002-0.06-0.003c-0.002,0-0.004,0-0.006,0c-0.021-0.001-0.043-0.002-0.064-0.003c-0.002,0-0.004,0-0.006,0
				c-0.165-0.007-0.327-0.024-0.491-0.033c-0.647-0.034-1.29-0.079-1.93-0.133c-0.61-0.052-1.217-0.113-1.821-0.181
				c-0.028-0.003-0.058-0.005-0.086-0.008h-0.001c-0.005,0-0.009-0.001-0.014-0.001c-0.37-0.042-0.743-0.075-1.111-0.123
				c-0.497-0.065-0.986-0.149-1.479-0.226c-0.404-0.063-0.813-0.118-1.214-0.188c-0.479-0.084-0.95-0.185-1.424-0.279
				c-0.407-0.081-0.817-0.156-1.221-0.244c-0.464-0.102-0.92-0.22-1.379-0.332c-0.406-0.099-0.815-0.193-1.218-0.3
				c-0.45-0.119-0.892-0.252-1.337-0.381c-0.007-0.002-0.014-0.004-0.021-0.006c-0.003-0.001-0.007-0.002-0.01-0.003
				c-0.237-0.069-0.472-0.139-0.708-0.207c-0.155-0.045-0.312-0.089-0.466-0.137c-0.437-0.137-0.866-0.286-1.298-0.431
				c-0.397-0.134-0.796-0.264-1.188-0.405c-0.424-0.153-0.84-0.316-1.258-0.478c-0.005-0.002-0.01-0.004-0.015-0.006
				c-0.001,0-0.002,0-0.003-0.001c-0.384-0.148-0.771-0.294-1.149-0.449c-0.411-0.168-0.814-0.347-1.22-0.523
				c-0.005-0.002-0.01-0.004-0.016-0.007l-0.001,0c-0.376-0.164-0.754-0.327-1.126-0.498c-0.398-0.184-0.789-0.376-1.182-0.567
				c-0.373-0.182-0.746-0.363-1.113-0.552c-0.112-0.058-0.222-0.119-0.334-0.178c-0.274-0.144-0.548-0.29-0.82-0.438
				c-0.359-0.196-0.72-0.391-1.073-0.593c-0.048-0.027-0.094-0.056-0.142-0.083c-0.155-0.089-0.308-0.182-0.461-0.272
				c-0.163-0.098-0.329-0.193-0.492-0.291c-0.002-0.001-0.004-0.002-0.007-0.004c-0.002-0.001-0.005-0.003-0.008-0.005
				c-0.346-0.208-0.691-0.417-1.032-0.631c-0.002-0.001-0.005-0.003-0.007-0.004c-0.001-0.001-0.003-0.001-0.004-0.002
				c-0.092-0.058-0.18-0.118-0.271-0.176c-0.101-0.066-0.202-0.132-0.304-0.198c-0.159-0.104-0.32-0.207-0.479-0.312
				c-0.34-0.225-0.68-0.451-1.013-0.683c-0.001,0-0.001-0.001-0.002-0.001c-0.003-0.002-0.006-0.004-0.009-0.006
				c-0.171-0.119-0.338-0.241-0.507-0.362c-0.168-0.121-0.338-0.24-0.506-0.362c-0.165-0.121-0.327-0.244-0.49-0.365
				c-0.165-0.123-0.331-0.243-0.494-0.368c-0.325-0.248-0.645-0.5-0.963-0.755c-0.002-0.002-0.004-0.003-0.007-0.005
				c0,0-0.001,0-0.001-0.001c-0.317-0.254-0.633-0.51-0.942-0.771c-0.181-0.151-0.356-0.305-0.534-0.458
				c-0.13-0.111-0.261-0.222-0.39-0.334c-0.305-0.268-0.606-0.539-0.904-0.813c-0.293-0.27-0.582-0.542-0.868-0.816l-0.001-0.001
				c-0.002-0.002-0.005-0.005-0.008-0.007c-0.131-0.126-0.258-0.255-0.387-0.382c-0.158-0.156-0.318-0.311-0.475-0.469
				c-0.065-0.066-0.129-0.134-0.194-0.201c-0.007-0.007-0.013-0.013-0.02-0.02c-0.203-0.207-0.406-0.414-0.604-0.624
				c-0.28-0.296-0.555-0.596-0.826-0.898c-0.174-0.193-0.344-0.389-0.516-0.583c-0.086-0.098-0.174-0.195-0.259-0.293
				c-0.146-0.169-0.285-0.342-0.428-0.513c-0.115-0.139-0.232-0.276-0.347-0.416c-0.242-0.297-0.483-0.595-0.718-0.897
				c-0.249-0.32-0.49-0.645-0.73-0.97c-0.226-0.306-0.45-0.611-0.667-0.921c-0.232-0.332-0.456-0.667-0.679-1.003
				c-0.167-0.251-0.331-0.503-0.493-0.756c-0.04-0.063-0.082-0.125-0.122-0.188c-0.216-0.343-0.42-0.69-0.626-1.038
				c-0.188-0.319-0.378-0.636-0.559-0.959c-0.001-0.002-0.003-0.005-0.004-0.007l0,0c-0.196-0.352-0.382-0.709-0.568-1.066
				c-0.17-0.324-0.342-0.647-0.502-0.975c-0.177-0.36-0.342-0.726-0.509-1.09c-0.001-0.003-0.003-0.006-0.004-0.009
				c-0.001-0.002-0.003-0.005-0.004-0.008c-0.149-0.329-0.303-0.656-0.444-0.988c-0.161-0.379-0.309-0.763-0.459-1.146
				c-0.13-0.33-0.264-0.659-0.385-0.992c0,0,0-0.001-0.001-0.002c0-0.002-0.001-0.004-0.002-0.006
				c-0.137-0.379-0.26-0.764-0.387-1.147c-0.023-0.071-0.046-0.143-0.069-0.214c-0.09-0.27-0.183-0.538-0.264-0.81
				c-0.122-0.406-0.228-0.816-0.337-1.226c-0.088-0.33-0.183-0.658-0.263-0.99v-0.001c0-0.001-0.001-0.002-0.001-0.003
				c-0.097-0.404-0.176-0.813-0.26-1.221c0-0.001-0.001-0.002-0.001-0.004c-0.003-0.017-0.007-0.034-0.011-0.051
				c-0.066-0.323-0.141-0.645-0.199-0.97c-0.081-0.453-0.142-0.91-0.207-1.366c-0.044-0.305-0.098-0.607-0.135-0.914
				c-0.061-0.511-0.099-1.026-0.14-1.542c-0.009-0.105-0.018-0.21-0.028-0.315c-0.002-0.032-0.006-0.063-0.009-0.095
				c-0.011-0.118-0.024-0.237-0.031-0.356c-0.046-0.774-0.07-1.552-0.07-2.333c0-0.743,0.025-1.481,0.065-2.217
				c0.016-0.277,0.041-0.551,0.062-0.827c0.033-0.443,0.07-0.885,0.117-1.325c0.039-0.354,0.083-0.708,0.131-1.061
				c0.045-0.336,0.096-0.671,0.148-1.005c0.001-0.005,0.002-0.011,0.003-0.016c0,0,0,0,0,0c0.066-0.413,0.135-0.825,0.213-1.235
				c0.042-0.214,0.089-0.426,0.134-0.639c0.136-0.652,0.289-1.299,0.455-1.942c0-0.002,0.001-0.004,0.002-0.006
				c0.122-0.472,0.261-0.939,0.399-1.407c0.049-0.163,0.092-0.328,0.142-0.491c0.001-0.002,0.001-0.004,0.002-0.006
				c0.143-0.46,0.3-0.916,0.458-1.371c0.059-0.168,0.113-0.338,0.174-0.506c0.001-0.001,0.001-0.003,0.002-0.004
				c7.009-19.387,28.097-33.865,53.606-33.865c30.906,0,48.125,19.014,53.379,33.029c0,0,0.023,0.063,0.058,0.157
				c0.231-0.581,0.449-1.168,0.655-1.758c0.135-0.387,0.256-0.778,0.379-1.168c0.063-0.195,0.129-0.388,0.188-0.583
				c0.157-0.523,0.302-1.05,0.438-1.579c0.015-0.058,0.031-0.114,0.046-0.172c0.148-0.586,0.285-1.176,0.408-1.77
				c0.043-0.206,0.089-0.41,0.129-0.616c0.039-0.202,0.069-0.406,0.105-0.608c0.036-0.215,0.076-0.429,0.11-0.644
				c0.055-0.337,0.104-0.675,0.15-1.014c0.035-0.259,0.065-0.519,0.097-0.778c0.011-0.095,0.024-0.189,0.034-0.284
				c0.048-0.438,0.085-0.879,0.118-1.32c0.021-0.279,0.046-0.558,0.062-0.838c0.04-0.734,0.065-1.471,0.065-2.212
				c0-0.739-0.024-1.475-0.065-2.207c-0.015-0.256-0.042-0.51-0.062-0.765c-0.036-0.48-0.074-0.959-0.128-1.435
				c-0.004-0.032-0.009-0.063-0.013-0.095c-0.031-0.255-0.067-0.509-0.103-0.764c-0.06-0.437-0.12-0.874-0.193-1.307
				c-0.05-0.291-0.107-0.58-0.163-0.869c-0.003-0.013-0.005-0.027-0.008-0.04c-0.079-0.411-0.164-0.82-0.256-1.229
				c-0.046-0.203-0.097-0.404-0.146-0.606c-0.026-0.107-0.051-0.216-0.078-0.323c-0.1-0.398-0.206-0.793-0.318-1.188
				c-0.031-0.11-0.065-0.219-0.098-0.328c-0.059-0.2-0.116-0.4-0.178-0.598c-0.122-0.393-0.252-0.783-0.387-1.172
				c-0.104-0.301-0.206-0.604-0.317-0.902c-0.141-0.381-0.293-0.758-0.444-1.135c-0.122-0.302-0.24-0.605-0.369-0.904
				c-0.17-0.393-0.354-0.782-0.535-1.171c-0.031-0.068-0.063-0.136-0.095-0.204c-0.098-0.207-0.188-0.416-0.29-0.621
				c-0.229-0.464-0.475-0.922-0.721-1.379c-0.211-0.393-0.43-0.783-0.654-1.17c-0.235-0.407-0.469-0.815-0.718-1.216
				c-0.191-0.31-0.397-0.613-0.598-0.919c-0.2-0.307-0.397-0.615-0.605-0.917c-0.078-0.112-0.161-0.222-0.239-0.333
				c-0.148-0.208-0.296-0.416-0.446-0.623c-0.201-0.277-0.401-0.555-0.608-0.828c-0.25-0.329-0.508-0.652-0.767-0.976
				c-0.204-0.254-0.409-0.508-0.618-0.76c-0.271-0.325-0.549-0.646-0.83-0.965c-0.204-0.231-0.41-0.461-0.618-0.69
				c-0.3-0.329-0.604-0.655-0.915-0.978c-0.205-0.213-0.415-0.423-0.624-0.633c-0.327-0.329-0.657-0.656-0.995-0.977
				c-0.19-0.181-0.387-0.358-0.581-0.537c-0.121-0.111-0.245-0.22-0.366-0.331c-0.252-0.228-0.498-0.458-0.755-0.682
				c-0.143-0.123-0.289-0.242-0.433-0.364c-2.031-1.729-4.219-3.329-6.545-4.78c-0.013-0.007-0.024-0.015-0.036-0.023
				c-0.072-0.045-0.145-0.093-0.218-0.138c-0.366-0.226-0.742-0.44-1.115-0.658c-0.164-0.096-0.325-0.195-0.49-0.29
				c-0.139-0.079-0.275-0.161-0.415-0.239c-0.349-0.196-0.705-0.383-1.061-0.571c-0.178-0.095-0.353-0.193-0.532-0.287
				c-0.158-0.083-0.316-0.166-0.477-0.247c-0.475-0.242-0.957-0.476-1.441-0.706c-0.062-0.029-0.122-0.061-0.184-0.09
				c-0.163-0.077-0.325-0.152-0.489-0.228c-0.559-0.257-1.121-0.507-1.691-0.748c-0.147-0.063-0.296-0.123-0.444-0.184
				c-0.596-0.246-1.194-0.486-1.802-0.714c-0.097-0.037-0.195-0.071-0.293-0.107c-0.027-0.01-0.056-0.019-0.083-0.029
				c-2.661-0.981-5.432-1.786-8.289-2.403c-0.12-0.026-0.239-0.057-0.359-0.082c-0.527-0.111-1.061-0.207-1.594-0.305
				c-0.245-0.045-0.488-0.095-0.734-0.137c-0.224-0.039-0.451-0.068-0.675-0.104c-0.921-0.142-1.846-0.273-2.777-0.379
				c-0.06-0.007-0.119-0.014-0.179-0.021c-1.091-0.123-2.189-0.222-3.294-0.293c-0.687-0.041-1.372-0.083-2.065-0.102
				c-0.596-0.022-1.195-0.033-1.797-0.04c-0.003,0-0.006,0-0.009,0c-0.258-0.003-0.515-0.012-0.772-0.012
				c-1.318,0-2.631,0.037-3.939,0.091c-0.002,0-0.003,0-0.003,0c-0.297,0.012-0.593,0.028-0.889,0.043
				c-1.147,0.058-2.292,0.134-3.432,0.233c-0.006,0-0.011,0-0.017,0.001c-0.243,0.021-0.486,0.036-0.729,0.059
				c-0.043,0.004-0.085,0.011-0.127,0.015c-1.243,0.119-2.481,0.263-3.712,0.432c-0.032,0.004-0.063,0.009-0.096,0.014
				c-1.259,0.174-2.511,0.372-3.756,0.593c-0.003,0-0.007,0.001-0.01,0.001c-0.387,0.069-0.774,0.133-1.159,0.207
				c-1.178,0.225-2.348,0.469-3.511,0.737h-0.001c-0.045,0.01-0.09,0.022-0.136,0.033c-1.227,0.285-2.443,0.599-3.652,0.932
				c-0.175,0.048-0.349,0.098-0.522,0.146c-1.203,0.338-2.398,0.695-3.582,1.08c-0.007,0.002-0.014,0.004-0.02,0.006
				c-0.002,0-0.003,0.001-0.003,0.001c-1.231,0.4-2.449,0.828-3.656,1.279c-0.03,0.011-0.062,0.022-0.093,0.033
				c-1.225,0.458-2.437,0.942-3.636,1.45c-0.008,0.003-0.017,0.006-0.024,0.01c-0.842,0.357-1.678,0.725-2.507,1.106
				c-0.079,0.036-0.157,0.074-0.235,0.11c-0.54,0.249-1.08,0.497-1.613,0.757c-0.003,0.001-0.005,0.002-0.008,0.003
				c-0.357,0.174-0.71,0.356-1.064,0.536c-0.438,0.221-0.871,0.448-1.306,0.673c-0.289,0.152-0.578,0.302-0.865,0.457
				c-0.562,0.302-1.126,0.601-1.68,0.915c-0.004,0.002-0.009,0.005-0.013,0.007c0,0,0,0-0.001,0
				c-12.087,6.701-22.586,16.27-29.54,28.793c-0.172,0.32-0.343,0.64-0.516,0.959c-0.331,0.618-0.662,1.236-0.975,1.869
				c-0.015,0.028-0.029,0.055-0.043,0.083c-0.065,0.129-0.133,0.256-0.197,0.386c-0.007,0.013-0.013,0.026-0.019,0.04
				c-0.03,0.062-0.059,0.125-0.089,0.187c-0.094,0.197-0.187,0.395-0.279,0.591c-0.289,0.605-0.562,1.225-0.834,1.843
				c-0.07,0.159-0.146,0.313-0.214,0.472c-0.021,0.05-0.045,0.097-0.066,0.147c-0.262,0.61-0.507,1.232-0.751,1.855
				c-0.086,0.218-0.18,0.43-0.264,0.649c-0.004,0.009-0.008,0.019-0.011,0.028c-0.12,0.315-0.228,0.641-0.344,0.959
				c-0.197,0.542-0.4,1.081-0.585,1.632c-0.001,0.003-0.002,0.006-0.003,0.01c-0.246,0.731-0.473,1.475-0.694,2.222
				c-0.045,0.15-0.096,0.295-0.14,0.446c-0.016,0.056-0.031,0.113-0.048,0.17c-0.231,0.809-0.448,1.627-0.651,2.453v0
				c-0.099,0.397-0.183,0.801-0.273,1.201c-0.124,0.546-0.251,1.091-0.362,1.645c-0.001,0.007-0.003,0.013-0.004,0.02
				c-0.104,0.515-0.188,1.039-0.279,1.56c-0.067,0.382-0.14,0.762-0.201,1.147c-0.106,0.684-0.198,1.376-0.284,2.071
				c-0.023,0.184-0.051,0.366-0.073,0.551c-0.098,0.844-0.181,1.695-0.248,2.554c-0.003,0.032-0.006,0.063-0.008,0.095
				c-0.07,0.902-0.123,1.812-0.159,2.729c-0.011,0.288-0.028,0.573-0.036,0.863c0,0.002,0,0.005,0,0.008
				c-0.005,0.178-0.009,0.355-0.014,0.534c-0.002,0.079-0.005,0.158-0.006,0.237c-0.003,0.203,0.003,0.41,0.002,0.614
				c-0.006,0.769-0.011,1.538,0.01,2.317c0,0,0,0.001,0,0.001c0.025,0.994,0.072,1.996,0.141,3.006
				c0.013,0.184,0.033,0.37,0.047,0.555c0.054,0.711,0.121,1.428,0.195,2.147c0.05,0.46,0.101,0.921,0.159,1.385
				c0.041,0.334,0.091,0.671,0.137,1.008c0.173,1.239,0.37,2.488,0.604,3.75c0.029,0.155,0.054,0.309,0.084,0.465
				c0.001,0.004,0.002,0.008,0.002,0.012c0.095,0.489,0.197,0.98,0.3,1.472c0.185,0.879,0.375,1.76,0.595,2.651
				c0.077,0.313,0.165,0.638,0.258,0.969c0.002,0.007,0.005,0.015,0.007,0.023c0.041,0.143,0.085,0.292,0.129,0.439
				c0.062,0.207,0.123,0.414,0.189,0.627c0.025,0.081,0.05,0.161,0.076,0.243c0.104,0.321,0.215,0.651,0.331,0.985
				c0.134,0.385,0.277,0.779,0.429,1.18c0.01,0.027,0.019,0.053,0.029,0.08c0,0,0,0.001,0.001,0.001
				c0.088,0.232,0.184,0.471,0.277,0.709c0.082,0.208,0.162,0.415,0.249,0.628c0.009,0.021,0.017,0.041,0.024,0.061
				c0.19,0.462,0.391,0.932,0.603,1.411c0.005,0.012,0.011,0.024,0.016,0.036c0.216,0.488,0.442,0.983,0.68,1.486
				c0.003,0.006,0.005,0.011,0.008,0.017c0.207,0.437,0.419,0.878,0.643,1.326c-0.002-0.004-0.005-0.009-0.007-0.013
				c9.453,18.963,34.114,47.305,77.625,47.305c52.496,0,88.148-42.342,88.148-87.691C618.093,69.39,611.882,54.585,607.739,46.791z"
				/>
		</g>
	</g>
</g>
</svg>
